<svg width="225" height="116" viewBox="0 0 225 116" fill="none" xmlns="http://www.w3.org/2000/svg">
<path d="M116.044 37.0451C117.133 55.2045 134.566 63.5578 134.566 63.5578C125.487 39.2242 132.75 23.9704 132.75 23.9704C132.75 23.9704 133.477 47.5775 139.651 59.9259C139.651 59.9259 150.91 46.8512 150.183 31.9605C149.457 17.0698 134.566 0 134.566 0C134.566 0 114.954 18.8857 116.044 37.0451Z" fill="#00C2CE"/>
<path d="M176.333 44.3089C144.372 43.0637 141.104 75.9062 141.104 75.9062C166.527 49.7567 194.855 64.2842 194.855 64.2842C173.064 61.7419 150.547 69.732 131.661 101.692C131.661 101.692 129.119 106.051 132.75 107.867C136.382 109.683 138.925 107.14 138.925 107.14L149.457 87.8914C149.457 87.8914 160.716 93.7024 182.507 93.3392C204.298 92.976 225 64.2842 225 64.2842C225 64.2842 208.293 45.5541 176.333 44.3089Z" fill="#00C2CE"/>
<path d="M19.224 52.488C22.536 52.488 25.968 53.208 29.52 54.648L28.584 60.192L27.576 60.48C26.184 59.424 24.696 58.608 23.112 58.032C21.576 57.456 20.04 57.168 18.504 57.168C16.728 57.168 15.168 57.528 13.824 58.248C12.528 58.968 11.52 59.904 10.8 61.056C10.128 62.208 9.792 63.408 9.792 64.656C9.792 65.952 10.176 67.104 10.944 68.112C11.76 69.072 12.768 69.912 13.968 70.632C15.168 71.352 16.8 72.216 18.864 73.224C21.456 74.424 23.544 75.552 25.128 76.608C26.712 77.616 28.056 78.912 29.16 80.496C30.312 82.08 30.888 84 30.888 86.256C30.888 88.656 30.24 90.864 28.944 92.88C27.648 94.896 25.824 96.504 23.472 97.704C21.12 98.904 18.432 99.504 15.408 99.504C13.392 99.504 11.28 99.24 9.072 98.712C6.912 98.136 4.896 97.32 3.024 96.264L3.744 90.36L4.536 90C6.216 91.632 8.064 92.856 10.08 93.672C12.144 94.44 14.112 94.824 15.984 94.824C17.808 94.824 19.416 94.464 20.808 93.744C22.248 93.024 23.328 92.064 24.048 90.864C24.816 89.664 25.2 88.392 25.2 87.048C25.2 85.032 24.432 83.424 22.896 82.224C21.36 80.976 19.032 79.632 15.912 78.192C13.368 76.944 11.328 75.84 9.792 74.88C8.256 73.872 6.936 72.6 5.832 71.064C4.728 69.48 4.176 67.56 4.176 65.304C4.176 62.952 4.8 60.792 6.048 58.824C7.344 56.856 9.12 55.32 11.376 54.216C13.68 53.064 16.296 52.488 19.224 52.488ZM54.7689 52.776C59.2809 52.776 62.7609 53.952 65.2089 56.304C67.6569 58.608 68.8809 61.944 68.8809 66.312C68.8809 71.448 67.3449 75.48 64.2729 78.408C61.2489 81.336 57.0489 82.8 51.6729 82.8H46.2009V84.6L46.4889 99H40.6569L41.0169 85.104L40.6569 52.848L54.7689 52.776ZM53.8329 78.12C56.8089 77.64 59.0649 76.44 60.6009 74.52C62.1849 72.6 62.9769 70.032 62.9769 66.816C62.9769 60.864 59.8089 57.768 53.4729 57.528L46.4889 57.744L46.2729 77.976L53.8329 78.12ZM107.813 99H101.909L100.829 94.392L98.2373 86.472L87.8693 86.256L78.5093 86.472L75.7013 94.104L74.5493 99H68.7893L85.7093 52.848H92.4053L107.813 99ZM96.6533 81.576L89.1653 58.824H88.6613L80.3093 81.576L88.3733 81.72L96.6533 81.576Z" fill="black"/>
</svg>
