<svg width="483" height="233" viewBox="0 0 483 233" fill="none" xmlns="http://www.w3.org/2000/svg">
<path d="M167.06 51C168.56 76 192.56 87.5 192.56 87.5C180.06 54 190.06 33 190.06 33C190.06 33 191.06 65.5 199.56 82.5C199.56 82.5 215.06 64.5 214.06 44C213.06 23.5 192.56 0 192.56 0C192.56 0 165.56 26 167.06 51Z" fill="#00C2CE"/>
<path d="M250.06 61C206.06 59.2857 201.56 104.5 201.56 104.5C236.56 68.5 275.56 88.5 275.56 88.5C245.56 85 214.56 96 188.56 140C188.56 140 185.06 146 190.06 148.5C195.06 151 198.56 147.5 198.56 147.5L213.06 121C213.06 121 228.56 129 258.56 128.5C288.56 128 317.06 88.5 317.06 88.5C317.06 88.5 294.06 62.7143 250.06 61Z" fill="#00C2CE"/>
<path d="M13.152 186.848C15.584 186.848 18.016 187.36 20.448 188.384L19.632 192.896L18.864 193.184C17.84 192.448 16.784 191.872 15.696 191.456C14.608 191.04 13.568 190.832 12.576 190.832C11.008 190.832 9.76 191.264 8.832 192.128C7.904 192.992 7.44 194 7.44 195.152C7.44 196.272 7.904 197.2 8.832 197.936C9.76 198.64 11.216 199.456 13.2 200.384C14.928 201.216 16.32 201.968 17.376 202.64C18.464 203.312 19.392 204.208 20.16 205.328C20.928 206.416 21.312 207.728 21.312 209.264C21.312 210.928 20.848 212.464 19.92 213.872C19.024 215.248 17.744 216.352 16.08 217.184C14.448 217.984 12.576 218.384 10.464 218.384C9.056 218.384 7.6 218.208 6.096 217.856C4.592 217.504 3.168 216.992 1.824 216.32L2.448 211.424L3.072 211.136C4.256 212.256 5.552 213.104 6.96 213.68C8.4 214.224 9.728 214.496 10.944 214.496C12.608 214.496 13.936 214.064 14.928 213.2C15.92 212.304 16.416 211.248 16.416 210.032C16.416 208.816 15.936 207.84 14.976 207.104C14.016 206.336 12.544 205.488 10.56 204.56C8.864 203.76 7.488 203.04 6.432 202.4C5.376 201.728 4.464 200.848 3.696 199.76C2.96 198.672 2.592 197.36 2.592 195.824C2.592 194.16 3.04 192.64 3.936 191.264C4.832 189.888 6.08 188.816 7.68 188.048C9.28 187.248 11.104 186.848 13.152 186.848ZM26.9471 208.736L26.8031 196.208L31.6031 195.776L31.4111 208.304L31.5551 218H26.7551L26.9471 208.736ZM29.2511 185.552C30.0511 185.552 30.6751 185.792 31.1231 186.272C31.5711 186.72 31.7951 187.36 31.7951 188.192C31.7951 189.056 31.5551 189.744 31.0751 190.256C30.5951 190.768 29.9391 191.024 29.1071 191.024C28.2751 191.024 27.6191 190.784 27.1391 190.304C26.6911 189.824 26.4671 189.168 26.4671 188.336C26.4671 187.504 26.7071 186.832 27.1871 186.32C27.6991 185.808 28.3871 185.552 29.2511 185.552ZM66.0191 203.456C66.0511 202.24 65.7631 201.296 65.1551 200.624C64.5791 199.92 63.7311 199.568 62.6111 199.568C60.7871 199.568 58.8991 200.496 56.9471 202.352L56.8511 208.304L57.0911 218H52.1471L52.4831 203.456C52.5151 202.24 52.2271 201.296 51.6191 200.624C51.0431 199.92 50.1951 199.568 49.0751 199.568C47.2191 199.568 45.2991 200.528 43.3151 202.448L43.2671 208.304L43.5551 218H38.6591L38.9471 208.736L38.7071 196.208L43.3631 195.776L43.3151 198.992H43.6511C45.5391 197.328 47.5071 196.192 49.5551 195.584C51.3471 195.584 52.8191 195.904 53.9711 196.544C55.1551 197.152 55.9871 198.032 56.4671 199.184H56.7551C58.7071 197.488 60.8191 196.288 63.0911 195.584C65.5551 195.584 67.4111 196.144 68.6591 197.264C69.9391 198.384 70.5631 199.984 70.5311 202.064L70.3871 208.304L70.6271 218H65.7311L66.0191 203.456ZM88.1824 195.632C90.9664 195.632 93.0944 196.56 94.5664 198.416C96.0384 200.272 96.7744 202.88 96.7744 206.24C96.7744 210.144 95.8304 213.152 93.9424 215.264C92.0544 217.376 89.4304 218.432 86.0704 218.432C84.4384 218.432 82.8064 218.064 81.1744 217.328L78.1024 218.576L77.3824 218.096L77.7184 208.784L77.4304 184.688L82.3264 184.304L82.1344 198.944H82.4224C83.4144 198.08 84.3424 197.408 85.2064 196.928C86.0704 196.416 87.0624 195.984 88.1824 195.632ZM86.2624 215.072C88.1184 215.072 89.5744 214.416 90.6304 213.104C91.6864 211.76 92.2144 209.744 92.2144 207.056C92.2144 204.656 91.7984 202.816 90.9664 201.536C90.1344 200.224 88.9344 199.568 87.3664 199.568C85.6704 199.568 83.9104 200.528 82.0864 202.448L81.9904 208.208L82.1344 213.776C83.5744 214.64 84.9504 215.072 86.2624 215.072ZM102.322 208.736L102.178 196.208L106.978 195.776L106.786 208.304L106.93 218H102.13L102.322 208.736ZM104.626 185.552C105.426 185.552 106.05 185.792 106.498 186.272C106.946 186.72 107.17 187.36 107.17 188.192C107.17 189.056 106.93 189.744 106.45 190.256C105.97 190.768 105.314 191.024 104.482 191.024C103.65 191.024 102.994 190.784 102.514 190.304C102.066 189.824 101.842 189.168 101.842 188.336C101.842 187.504 102.082 186.832 102.562 186.32C103.074 185.808 103.762 185.552 104.626 185.552ZM125.074 195.824C125.426 195.824 125.826 195.856 126.274 195.92V200.576L125.746 200.72C125.234 200.56 124.642 200.48 123.97 200.48C122.978 200.48 122.05 200.848 121.186 201.584C120.322 202.32 119.49 203.504 118.69 205.136L118.642 208.304L118.93 218H114.034L114.37 208.736L114.082 196.208L118.738 195.776L118.69 200.192H119.026C119.89 198.656 120.85 197.552 121.906 196.88C122.962 196.176 124.018 195.824 125.074 195.824ZM148.889 187.136C151.993 187.136 154.377 187.936 156.041 189.536C157.737 191.104 158.585 193.376 158.585 196.352C158.585 199.808 157.513 202.544 155.369 204.56C153.257 206.576 150.345 207.584 146.633 207.584H143.225V208.304L143.465 218H138.425L138.761 208.736L138.425 187.184L148.889 187.136ZM148.073 203.744C149.833 203.392 151.161 202.64 152.057 201.488C152.985 200.304 153.449 198.736 153.449 196.784C153.449 194.864 152.953 193.44 151.961 192.512C151.001 191.584 149.529 191.088 147.545 191.024L143.465 191.168L143.273 203.648L148.073 203.744ZM177.41 203.456C177.442 202.24 177.154 201.296 176.546 200.624C175.97 199.92 175.122 199.568 174.002 199.568C172.178 199.568 170.258 200.528 168.242 202.448L168.146 208.256L168.482 218H163.586L163.922 208.688L163.634 184.688L168.53 184.304L168.29 198.992H168.578C170.466 197.328 172.434 196.192 174.482 195.584C176.946 195.584 178.802 196.144 180.05 197.264C181.33 198.384 181.954 199.984 181.922 202.064L181.826 208.304L182.018 218H177.122L177.41 203.456ZM196.532 195.44C198.74 195.44 200.484 195.968 201.764 197.024C203.044 198.08 203.684 199.552 203.684 201.44C203.684 202.016 203.588 203.936 203.396 207.2C203.204 210.4 203.108 212.272 203.108 212.816C203.108 213.424 203.204 213.856 203.396 214.112C203.62 214.336 203.988 214.448 204.5 214.448C204.82 214.448 205.3 214.384 205.94 214.256L206.372 214.592L205.892 217.28C204.964 217.856 203.956 218.208 202.868 218.336C201.876 218.24 201.076 217.888 200.468 217.28C199.86 216.64 199.492 215.808 199.364 214.784H199.028C197.396 216.512 195.732 217.712 194.036 218.384C191.828 218.352 190.084 217.776 188.804 216.656C187.556 215.536 186.932 214.016 186.932 212.096C186.932 209.248 188.484 207.472 191.588 206.768L199.172 205.088L199.22 202.496C199.22 201.312 198.916 200.416 198.308 199.808C197.732 199.2 196.884 198.896 195.764 198.896C194.676 198.896 193.588 199.152 192.5 199.664C191.412 200.144 190.212 200.912 188.9 201.968L188.516 201.728L187.892 198.32C190.708 196.4 193.588 195.44 196.532 195.44ZM192.932 209.408C192.356 209.536 191.94 209.76 191.684 210.08C191.428 210.368 191.3 210.832 191.3 211.472C191.3 212.432 191.556 213.184 192.068 213.728C192.612 214.272 193.332 214.544 194.228 214.544C195.732 214.544 197.332 213.568 199.028 211.616L199.172 207.92L192.932 209.408ZM221.824 195.824C222.176 195.824 222.576 195.856 223.024 195.92V200.576L222.496 200.72C221.984 200.56 221.392 200.48 220.72 200.48C219.728 200.48 218.8 200.848 217.936 201.584C217.072 202.32 216.24 203.504 215.44 205.136L215.392 208.304L215.68 218H210.784L211.12 208.736L210.832 196.208L215.488 195.776L215.44 200.192H215.776C216.64 198.656 217.6 197.552 218.656 196.88C219.712 196.176 220.768 195.824 221.824 195.824ZM254.175 203.456C254.207 202.24 253.919 201.296 253.311 200.624C252.735 199.92 251.887 199.568 250.767 199.568C248.943 199.568 247.055 200.496 245.103 202.352L245.007 208.304L245.247 218H240.303L240.639 203.456C240.671 202.24 240.383 201.296 239.775 200.624C239.199 199.92 238.351 199.568 237.231 199.568C235.375 199.568 233.455 200.528 231.471 202.448L231.423 208.304L231.711 218H226.815L227.103 208.736L226.863 196.208L231.519 195.776L231.471 198.992H231.807C233.695 197.328 235.663 196.192 237.711 195.584C239.503 195.584 240.975 195.904 242.127 196.544C243.311 197.152 244.143 198.032 244.623 199.184H244.911C246.863 197.488 248.975 196.288 251.247 195.584C253.711 195.584 255.567 196.144 256.815 197.264C258.095 198.384 258.719 199.984 258.687 202.064L258.543 208.304L258.783 218H253.887L254.175 203.456ZM296.842 218H291.754L291.034 214.544L289.69 210.272L283.162 210.128L277.258 210.272L275.818 214.304L275.05 218H270.106L281.098 187.184H286.906L296.842 218ZM288.442 206.24L284.026 192.032H283.69L278.65 206.24L283.498 206.336L288.442 206.24ZM321.51 198.224C320.614 198.512 319.238 198.816 317.382 199.136L317.286 199.328C317.894 200.352 318.198 201.584 318.198 203.024C318.198 205.392 317.382 207.28 315.75 208.688C314.118 210.064 311.91 210.752 309.126 210.752C308.102 210.752 307.126 210.656 306.198 210.464C305.814 210.784 305.542 211.072 305.382 211.328C305.254 211.552 305.19 211.792 305.19 212.048C305.19 212.688 305.59 213.136 306.39 213.392C307.222 213.648 308.518 213.904 310.278 214.16C312.102 214.384 313.622 214.656 314.838 214.976C316.054 215.296 317.094 215.84 317.958 216.608C318.854 217.376 319.302 218.432 319.302 219.776C319.302 221.184 318.838 222.464 317.91 223.616C316.982 224.768 315.702 225.664 314.07 226.304C312.47 226.976 310.678 227.312 308.694 227.312C306.006 227.312 303.91 226.72 302.406 225.536C300.934 224.352 300.198 222.8 300.198 220.88C300.678 220.112 301.254 219.424 301.926 218.816C302.598 218.208 303.398 217.6 304.326 216.992V216.752C303.206 216.368 302.342 215.872 301.734 215.264C301.126 214.624 300.822 213.776 300.822 212.72C301.654 211.536 302.678 210.56 303.894 209.792V209.552C302.806 208.944 301.974 208.128 301.398 207.104C300.854 206.048 300.582 204.816 300.582 203.408C300.582 200.976 301.382 199.072 302.982 197.696C304.614 196.288 306.806 195.584 309.558 195.584C311.222 195.584 312.694 195.856 313.974 196.4C316.342 196.016 318.71 195.456 321.078 194.72L321.51 195.008V198.224ZM309.318 207.632C310.79 207.632 311.91 207.232 312.678 206.432C313.478 205.632 313.878 204.496 313.878 203.024C313.878 201.648 313.51 200.592 312.774 199.856C312.038 199.12 310.95 198.752 309.51 198.752C308.006 198.752 306.854 199.136 306.054 199.904C305.286 200.64 304.902 201.728 304.902 203.168C304.902 204.608 305.27 205.712 306.006 206.48C306.774 207.248 307.878 207.632 309.318 207.632ZM315.078 220.688C315.078 219.984 314.806 219.44 314.262 219.056C313.718 218.672 313.062 218.384 312.294 218.192C311.526 218.032 310.406 217.84 308.934 217.616C308.23 217.552 307.734 217.488 307.446 217.424C306.422 218.064 305.654 218.688 305.142 219.296C304.63 219.904 304.374 220.528 304.374 221.168C304.374 222.032 304.79 222.736 305.622 223.28C306.486 223.856 307.702 224.144 309.27 224.144C310.966 224.144 312.358 223.824 313.446 223.184C314.534 222.544 315.078 221.712 315.078 220.688ZM345.135 198.224C344.239 198.512 342.863 198.816 341.007 199.136L340.911 199.328C341.519 200.352 341.823 201.584 341.823 203.024C341.823 205.392 341.007 207.28 339.375 208.688C337.743 210.064 335.535 210.752 332.751 210.752C331.727 210.752 330.751 210.656 329.823 210.464C329.439 210.784 329.167 211.072 329.007 211.328C328.879 211.552 328.815 211.792 328.815 212.048C328.815 212.688 329.215 213.136 330.015 213.392C330.847 213.648 332.143 213.904 333.903 214.16C335.727 214.384 337.247 214.656 338.463 214.976C339.679 215.296 340.719 215.84 341.583 216.608C342.479 217.376 342.927 218.432 342.927 219.776C342.927 221.184 342.463 222.464 341.535 223.616C340.607 224.768 339.327 225.664 337.695 226.304C336.095 226.976 334.303 227.312 332.319 227.312C329.631 227.312 327.535 226.72 326.031 225.536C324.559 224.352 323.823 222.8 323.823 220.88C324.303 220.112 324.879 219.424 325.551 218.816C326.223 218.208 327.023 217.6 327.951 216.992V216.752C326.831 216.368 325.967 215.872 325.359 215.264C324.751 214.624 324.447 213.776 324.447 212.72C325.279 211.536 326.303 210.56 327.519 209.792V209.552C326.431 208.944 325.599 208.128 325.023 207.104C324.479 206.048 324.207 204.816 324.207 203.408C324.207 200.976 325.007 199.072 326.607 197.696C328.239 196.288 330.431 195.584 333.183 195.584C334.847 195.584 336.319 195.856 337.599 196.4C339.967 196.016 342.335 195.456 344.703 194.72L345.135 195.008V198.224ZM332.943 207.632C334.415 207.632 335.535 207.232 336.303 206.432C337.103 205.632 337.503 204.496 337.503 203.024C337.503 201.648 337.135 200.592 336.399 199.856C335.663 199.12 334.575 198.752 333.135 198.752C331.631 198.752 330.479 199.136 329.679 199.904C328.911 200.64 328.527 201.728 328.527 203.168C328.527 204.608 328.895 205.712 329.631 206.48C330.399 207.248 331.503 207.632 332.943 207.632ZM338.703 220.688C338.703 219.984 338.431 219.44 337.887 219.056C337.343 218.672 336.687 218.384 335.919 218.192C335.151 218.032 334.031 217.84 332.559 217.616C331.855 217.552 331.359 217.488 331.071 217.424C330.047 218.064 329.279 218.688 328.767 219.296C328.255 219.904 327.999 220.528 327.999 221.168C327.999 222.032 328.415 222.736 329.247 223.28C330.111 223.856 331.327 224.144 332.895 224.144C334.591 224.144 335.983 223.824 337.071 223.184C338.159 222.544 338.703 221.712 338.703 220.688ZM359.496 195.824C359.848 195.824 360.248 195.856 360.696 195.92V200.576L360.168 200.72C359.656 200.56 359.064 200.48 358.392 200.48C357.4 200.48 356.472 200.848 355.608 201.584C354.744 202.32 353.912 203.504 353.112 205.136L353.064 208.304L353.352 218H348.456L348.792 208.736L348.504 196.208L353.16 195.776L353.112 200.192H353.448C354.312 198.656 355.272 197.552 356.328 196.88C357.384 196.176 358.44 195.824 359.496 195.824ZM380.759 207.152L367.271 207.2C367.303 209.632 367.895 211.488 369.047 212.768C370.199 214.016 371.831 214.64 373.943 214.64C376.151 214.64 378.311 213.984 380.423 212.672L380.903 212.96L380.183 216.896C377.847 217.92 375.575 218.432 373.367 218.432C370.071 218.432 367.479 217.424 365.591 215.408C363.735 213.36 362.807 210.576 362.807 207.056C362.807 203.504 363.735 200.688 365.591 198.608C367.447 196.528 369.959 195.488 373.127 195.488C375.815 195.488 377.879 196.224 379.319 197.696C380.791 199.168 381.527 201.248 381.527 203.936C381.527 204.672 381.447 205.552 381.287 206.576L380.759 207.152ZM377.111 203.36C377.111 201.856 376.759 200.72 376.055 199.952C375.383 199.184 374.391 198.8 373.079 198.8C371.607 198.8 370.391 199.28 369.431 200.24C368.471 201.168 367.831 202.496 367.511 204.224L377.015 204.032L377.111 203.36ZM406.635 198.224C405.739 198.512 404.363 198.816 402.507 199.136L402.411 199.328C403.019 200.352 403.323 201.584 403.323 203.024C403.323 205.392 402.507 207.28 400.875 208.688C399.243 210.064 397.035 210.752 394.251 210.752C393.227 210.752 392.251 210.656 391.323 210.464C390.939 210.784 390.667 211.072 390.507 211.328C390.379 211.552 390.315 211.792 390.315 212.048C390.315 212.688 390.715 213.136 391.515 213.392C392.347 213.648 393.643 213.904 395.403 214.16C397.227 214.384 398.747 214.656 399.963 214.976C401.179 215.296 402.219 215.84 403.083 216.608C403.979 217.376 404.427 218.432 404.427 219.776C404.427 221.184 403.963 222.464 403.035 223.616C402.107 224.768 400.827 225.664 399.195 226.304C397.595 226.976 395.803 227.312 393.819 227.312C391.131 227.312 389.035 226.72 387.531 225.536C386.059 224.352 385.323 222.8 385.323 220.88C385.803 220.112 386.379 219.424 387.051 218.816C387.723 218.208 388.523 217.6 389.451 216.992V216.752C388.331 216.368 387.467 215.872 386.859 215.264C386.251 214.624 385.947 213.776 385.947 212.72C386.779 211.536 387.803 210.56 389.019 209.792V209.552C387.931 208.944 387.099 208.128 386.523 207.104C385.979 206.048 385.707 204.816 385.707 203.408C385.707 200.976 386.507 199.072 388.107 197.696C389.739 196.288 391.931 195.584 394.683 195.584C396.347 195.584 397.819 195.856 399.099 196.4C401.467 196.016 403.835 195.456 406.203 194.72L406.635 195.008V198.224ZM394.443 207.632C395.915 207.632 397.035 207.232 397.803 206.432C398.603 205.632 399.003 204.496 399.003 203.024C399.003 201.648 398.635 200.592 397.899 199.856C397.163 199.12 396.075 198.752 394.635 198.752C393.131 198.752 391.979 199.136 391.179 199.904C390.411 200.64 390.027 201.728 390.027 203.168C390.027 204.608 390.395 205.712 391.131 206.48C391.899 207.248 393.003 207.632 394.443 207.632ZM400.203 220.688C400.203 219.984 399.931 219.44 399.387 219.056C398.843 218.672 398.187 218.384 397.419 218.192C396.651 218.032 395.531 217.84 394.059 217.616C393.355 217.552 392.859 217.488 392.571 217.424C391.547 218.064 390.779 218.688 390.267 219.296C389.755 219.904 389.499 220.528 389.499 221.168C389.499 222.032 389.915 222.736 390.747 223.28C391.611 223.856 392.827 224.144 394.395 224.144C396.091 224.144 397.483 223.824 398.571 223.184C399.659 222.544 400.203 221.712 400.203 220.688ZM417.267 195.44C419.475 195.44 421.219 195.968 422.499 197.024C423.779 198.08 424.419 199.552 424.419 201.44C424.419 202.016 424.323 203.936 424.131 207.2C423.939 210.4 423.843 212.272 423.843 212.816C423.843 213.424 423.939 213.856 424.131 214.112C424.355 214.336 424.723 214.448 425.235 214.448C425.555 214.448 426.035 214.384 426.675 214.256L427.107 214.592L426.627 217.28C425.699 217.856 424.691 218.208 423.603 218.336C422.611 218.24 421.811 217.888 421.203 217.28C420.595 216.64 420.227 215.808 420.099 214.784H419.763C418.131 216.512 416.467 217.712 414.771 218.384C412.563 218.352 410.819 217.776 409.539 216.656C408.291 215.536 407.667 214.016 407.667 212.096C407.667 209.248 409.219 207.472 412.323 206.768L419.907 205.088L419.955 202.496C419.955 201.312 419.651 200.416 419.043 199.808C418.467 199.2 417.619 198.896 416.499 198.896C415.411 198.896 414.323 199.152 413.235 199.664C412.147 200.144 410.947 200.912 409.635 201.968L409.251 201.728L408.627 198.32C411.443 196.4 414.323 195.44 417.267 195.44ZM413.667 209.408C413.091 209.536 412.675 209.76 412.419 210.08C412.163 210.368 412.035 210.832 412.035 211.472C412.035 212.432 412.291 213.184 412.803 213.728C413.347 214.272 414.067 214.544 414.963 214.544C416.467 214.544 418.067 213.568 419.763 211.616L419.907 207.92L413.667 209.408ZM439.67 214.304C440.726 214.304 441.846 214.016 443.03 213.44L443.51 213.776L443.03 216.848C441.27 217.68 439.638 218.16 438.134 218.288C436.15 217.968 434.71 217.312 433.814 216.32C432.918 215.296 432.47 213.824 432.47 211.904L432.662 208.448L432.614 199.088H429.59L429.398 198.8L429.638 195.968H432.566V192.464L436.886 190.832L437.318 191.216L437.222 195.968H443.366L443.558 196.304L443.318 199.088H437.126L436.886 211.136C436.854 212.32 437.046 213.152 437.462 213.632C437.91 214.08 438.646 214.304 439.67 214.304ZM455.721 195.44C458.825 195.44 461.209 196.416 462.873 198.368C464.569 200.288 465.417 203.024 465.417 206.576C465.417 210.384 464.521 213.312 462.729 215.36C460.937 217.408 458.393 218.432 455.097 218.432C451.993 218.432 449.593 217.472 447.897 215.552C446.233 213.6 445.401 210.848 445.401 207.296C445.401 203.488 446.297 200.56 448.089 198.512C449.881 196.464 452.425 195.44 455.721 195.44ZM455.433 198.848C451.785 198.848 449.961 201.312 449.961 206.24C449.961 209.248 450.409 211.472 451.305 212.912C452.201 214.352 453.577 215.072 455.433 215.072C457.257 215.072 458.617 214.464 459.513 213.248C460.409 212.032 460.857 210.176 460.857 207.68C460.857 204.672 460.409 202.448 459.513 201.008C458.617 199.568 457.257 198.848 455.433 198.848ZM481.371 195.824C481.723 195.824 482.123 195.856 482.571 195.92V200.576L482.043 200.72C481.531 200.56 480.939 200.48 480.267 200.48C479.275 200.48 478.347 200.848 477.483 201.584C476.619 202.32 475.787 203.504 474.987 205.136L474.939 208.304L475.227 218H470.331L470.667 208.736L470.379 196.208L475.035 195.776L474.987 200.192H475.323C476.187 198.656 477.147 197.552 478.203 196.88C479.259 196.176 480.315 195.824 481.371 195.824Z" fill="black"/>
</svg>
